<?xml version="1.0" encoding="utf-8"?>
<!-- Generator: Adobe Illustrator 23.0.5, SVG Export Plug-In . SVG Version: 6.00 Build 0)  -->
<svg version="1.1" xmlns="http://www.w3.org/2000/svg" xmlns:xlink="http://www.w3.org/1999/xlink" x="0px" y="0px"
	 viewBox="0 0 841.89 595.28" style="enable-background:new 0 0 841.89 595.28;" xml:space="preserve">
<style type="text/css">
	.st0{fill:#6376B9;}
	.st1{fill:#F1F2F2;}
</style>
<g id="Layer_1">
	<g id="Layer_3">
	</g>
</g>
<g id="Layer_2">
	<g>
		<path class="st0" d="M522.43,192.57h-204c-5.41,10.07-10.82,20.14-16.23,30.22c-0.12,0.23-0.24,0.45-0.36,0.68
			c0.1,0.17,0.2,0.34,0.3,0.52c34.28,59.57,68.57,119.14,102.85,178.72c10.47,0,20.94,0,31.4,0l52.85-92.68L471.63,285l-32.94-0.77
			l-16.6,30.38l-39.57-65.87l80.94,1.02l15.83,24l29.62-0.26l31.15-53.87L522.43,192.57z"/>
		<polygon class="st1" points="321.24,196.66 517.33,196.66 491.03,244.66 466.77,244.66 480.31,218.36 309.5,218.87 		"/>
		<polygon class="st1" points="470.6,290.87 483.63,310.02 435.12,394.02 354.18,249.51 378.18,249.51 435.63,347.04 		"/>
		<polygon class="st1" points="468.56,249.51 490.77,249.51 502.01,268.15 481.07,268.15 		"/>
	</g>
</g>
</svg>
